<?xml version="1.0" standalone="no"?>
<!DOCTYPE svg PUBLIC "-//W3C//DTD SVG 20010904//EN"
 "http://www.w3.org/TR/2001/REC-SVG-20010904/DTD/svg10.dtd">
<svg version="1.0" xmlns="http://www.w3.org/2000/svg"
 width="640.000000pt" height="640.000000pt" viewBox="0 0 640.000000 640.000000"
 preserveAspectRatio="xMidYMid meet">
<metadata>
Created by potrace 1.14, written by Peter Selinger 2001-2017
</metadata>
<g transform="translate(0.000000,640.000000) scale(0.100000,-0.100000)"
fill="#000000" stroke="none">
<path d="M3615 6270 c66 -4 130 -10 143 -14 12 -4 22 -3 22 2 0 14 -79 22
-189 20 l-96 -1 120 -7z"/>
<path d="M3423 6263 c9 -2 25 -2 35 0 9 3 1 5 -18 5 -19 0 -27 -2 -17 -5z"/>
<path d="M3368 6253 c6 -2 18 -2 25 0 6 3 1 5 -13 5 -14 0 -19 -2 -12 -5z"/>
<path d="M3668 6253 c7 -3 16 -2 19 1 4 3 -2 6 -13 5 -11 0 -14 -3 -6 -6z"/>
<path d="M3318 6243 c7 -3 16 -2 19 1 4 3 -2 6 -13 5 -11 0 -14 -3 -6 -6z"/>
<path d="M3200 6216 c-64 -22 -153 -65 -137 -66 4 0 22 7 40 16 17 10 68 29
112 45 44 15 73 28 65 28 -8 0 -44 -10 -80 -23z"/>
<path d="M3438 6213 c7 -3 16 -2 19 1 4 3 -2 6 -13 5 -11 0 -14 -3 -6 -6z"/>
<path d="M3307 6176 c-60 -25 -90 -44 -50 -32 47 15 137 55 123 55 -8 0 -41
-10 -73 -23z"/>
<path d="M3398 6163 c12 -2 30 -2 40 0 9 3 -1 5 -23 4 -22 0 -30 -2 -17 -4z"/>
<path d="M3498 6153 c7 -3 16 -2 19 1 4 3 -2 6 -13 5 -11 0 -14 -3 -6 -6z"/>
<path d="M3019 6123 c-13 -16 -12 -17 4 -4 9 7 17 15 17 17 0 8 -8 3 -21 -13z"/>
<path d="M3358 6118 c6 -6 18 -8 28 -6 14 3 12 5 -9 10 -19 3 -25 2 -19 -4z"/>
<path d="M3230 6100 c-34 -12 -46 -19 -30 -19 38 1 118 16 95 19 -15 2 -12 4
10 10 27 7 27 8 5 8 -14 0 -50 -8 -80 -18z"/>
<path d="M3554 6105 c77 -13 181 -38 251 -60 17 -6 18 -5 4 4 -30 19 -199 60
-272 65 l-72 6 89 -15z"/>
<path d="M2952 6067 c-23 -23 -42 -49 -42 -57 1 -10 4 -8 12 5 6 11 27 37 46
58 20 20 34 37 31 37 -3 0 -24 -19 -47 -43z"/>
<path d="M3711 6106 c2 -2 39 -18 82 -36 42 -17 75 -35 72 -40 -2 -4 14 -16
38 -26 23 -10 69 -36 102 -58 33 -21 53 -31 46 -22 -11 13 -11 16 0 16 8 0 -6
14 -31 30 -28 19 -52 28 -64 24 -11 -4 -16 -2 -12 4 3 6 -27 26 -71 47 -92 44
-179 77 -162 61z m296 -137 c19 -12 32 -23 29 -26 -2 -3 -22 7 -43 21 -45 31
-35 35 14 5z"/>
<path d="M2770 6070 c-17 -6 -4 -8 45 -7 39 1 79 -2 90 -6 11 -5 9 -2 -5 7
-27 16 -89 19 -130 6z"/>
<path d="M3065 6026 c-16 -13 -27 -27 -24 -30 3 -3 18 8 34 24 35 36 31 38
-10 6z"/>
<path d="M2408 5869 c-43 -21 -78 -41 -78 -44 0 -5 159 72 169 81 14 13 -25
-2 -91 -37z"/>
<path d="M2335 5874 l-30 -26 33 22 c17 12 32 23 32 26 0 7 -4 5 -35 -22z"/>
<path d="M2845 5883 c-165 -67 -366 -326 -399 -513 l-6 -35 11 30 c68 183 125
280 226 380 70 69 124 108 189 134 27 11 42 20 34 20 -8 0 -33 -7 -55 -16z"/>
<path d="M4080 5896 c0 -2 8 -10 18 -17 15 -13 16 -12 3 4 -13 16 -21 21 -21
13z"/>
<path d="M2219 5758 c-65 -43 -254 -220 -264 -248 -3 -8 18 10 48 40 71 73
192 179 245 214 38 26 49 36 38 36 -2 0 -32 -19 -67 -42z"/>
<path d="M4300 5697 c0 -3 23 -24 50 -47 28 -23 50 -40 50 -37 0 3 -22 24 -50
47 -27 23 -50 40 -50 37z"/>
<path d="M3369 5620 c40 -57 142 -162 203 -206 101 -75 267 -134 373 -134 94
1 116 13 45 25 -60 10 -283 124 -245 125 6 0 33 -7 60 -15 62 -20 295 -58 303
-51 3 4 0 6 -7 6 -7 0 -58 44 -114 97 -100 96 -93 80 11 -26 29 -29 52 -55 50
-57 -7 -6 -182 25 -252 46 -38 11 -73 17 -78 14 -5 -3 -14 -2 -21 3 -7 4 1 -4
18 -20 16 -15 79 -52 140 -82 120 -60 114 -71 -21 -36 -175 45 -276 115 -464
321 l-32 35 31 -45z"/>
<path d="M4420 5596 c0 -3 9 -10 20 -16 11 -6 20 -8 20 -6 0 3 -9 10 -20 16
-11 6 -20 8 -20 6z"/>
<path d="M2120 5543 c-83 -44 -180 -109 -180 -120 0 -3 15 6 33 19 34 26 122
78 131 78 3 0 -6 -17 -20 -37 -52 -76 -136 -275 -122 -289 3 -2 12 22 22 54
25 79 90 208 131 258 19 22 48 47 65 54 16 7 30 16 30 21 0 11 8 15 -90 -38z"/>
<path d="M4470 5563 c0 -4 16 -18 36 -31 20 -13 33 -19 30 -13 -10 16 -66 53
-66 44z"/>
<path d="M2210 5550 c-9 -6 -10 -10 -3 -10 6 0 15 5 18 10 8 12 4 12 -15 0z"/>
<path d="M2134 5478 l-29 -33 33 29 c17 17 32 31 32 33 0 8 -8 1 -36 -29z"/>
<path d="M4580 5486 c0 -3 9 -10 20 -16 11 -6 20 -8 20 -6 0 3 -9 10 -20 16
-11 6 -20 8 -20 6z"/>
<path d="M4630 5457 c0 -7 72 -48 76 -44 2 2 -14 14 -36 26 -22 12 -40 20 -40
18z"/>
<path d="M4461 5425 c1 -19 18 -51 18 -35 0 8 -4 22 -9 30 -5 8 -9 11 -9 5z"/>
<path d="M1909 5403 c-13 -16 -12 -17 4 -4 9 7 17 15 17 17 0 8 -8 3 -21 -13z"/>
<path d="M1849 5393 c-13 -16 -12 -17 4 -4 9 7 17 15 17 17 0 8 -8 3 -21 -13z"/>
<path d="M1808 5338 c-42 -57 -42 -64 0 -24 23 22 39 43 36 48 -8 12 -9 11
-36 -24z"/>
<path d="M4482 5350 c0 -14 2 -19 5 -12 2 6 2 18 0 25 -3 6 -5 1 -5 -13z"/>
<path d="M3346 5285 c-35 -149 -122 -323 -192 -384 -38 -34 -41 -54 -4 -28 34
24 130 118 130 127 0 5 -8 6 -17 3 -17 -7 -17 -5 -2 17 43 68 118 297 107 330
-2 7 -12 -23 -22 -65z"/>
<path d="M4870 5340 c8 -5 20 -10 25 -10 6 0 3 5 -5 10 -8 5 -19 10 -25 10 -5
0 -3 -5 5 -10z"/>
<path d="M4728 5323 c7 -3 16 -2 19 1 4 3 -2 6 -13 5 -11 0 -14 -3 -6 -6z"/>
<path d="M4491 5304 c0 -11 3 -14 6 -6 3 7 2 16 -1 19 -3 4 -6 -2 -5 -13z"/>
<path d="M4577 5255 c9 -19 18 -33 21 -31 4 5 -26 66 -33 66 -3 0 3 -16 12
-35z"/>
<path d="M3755 5224 c-22 -59 -69 -146 -104 -194 -39 -54 -190 -207 -249 -252
-29 -22 -50 -43 -48 -46 7 -6 68 40 133 101 32 30 57 46 64 41 7 -4 9 -3 6 3
-3 5 18 37 47 71 30 33 70 87 89 119 41 68 90 180 84 196 -1 5 -11 -12 -22
-39z"/>
<path d="M4503 5235 c0 -22 2 -30 4 -17 2 12 2 30 0 40 -3 9 -5 -1 -4 -23z"/>
<path d="M4550 5268 c0 -3 8 -26 18 -50 11 -24 17 -50 15 -58 -4 -13 -3 -13 6
-1 7 10 5 25 -4 48 -17 39 -34 71 -35 61z"/>
<path d="M1951 5164 c0 -11 3 -14 6 -6 3 7 2 16 -1 19 -3 4 -6 -2 -5 -13z"/>
<path d="M4091 5178 c-1 -3 22 -68 49 -143 28 -76 68 -196 90 -269 43 -145 54
-153 16 -11 -36 133 -152 451 -155 423z"/>
<path d="M4512 5125 c0 -16 2 -22 5 -12 2 9 2 23 0 30 -3 6 -5 -1 -5 -18z"/>
<path d="M1932 5078 c-7 -36 -12 -78 -11 -94 1 -16 7 9 15 55 8 47 13 89 11
94 -2 6 -8 -19 -15 -55z"/>
<path d="M2955 5074 c5 -68 3 -75 -40 -162 -24 -51 -48 -92 -53 -92 -4 0 -16
6 -25 13 -16 11 -14 19 18 102 19 49 34 94 32 100 -2 5 -10 -8 -17 -30 -22
-70 -72 -156 -87 -151 -38 15 -226 67 -229 63 -3 -3 116 -43 215 -73 10 -3 -6
-26 -50 -70 -79 -81 -196 -184 -209 -184 -6 0 -11 26 -11 58 l-1 57 -12 -75
c-6 -41 -8 -80 -4 -86 4 -6 4 -15 0 -20 -4 -4 0 -3 9 4 9 7 38 15 65 18 l49 7
-20 -24 c-14 -17 -10 -15 14 6 43 39 105 121 165 217 42 69 50 77 67 68 10 -6
19 -14 19 -19 0 -18 -94 -141 -162 -210 -59 -61 -64 -68 -25 -37 26 20 47 33
47 29 0 -5 -5 -14 -11 -20 -7 -7 4 -12 40 -17 64 -8 99 -24 186 -80 l70 -46
-54 47 c-29 26 -74 58 -100 70 -43 22 -43 24 4 8 11 -3 7 1 -8 10 -39 23 -109
47 -102 35 3 -6 -1 -7 -9 -4 -18 7 -14 17 30 64 34 36 101 127 108 145 4 14
91 -33 123 -67 15 -16 33 -28 40 -28 8 0 11 -4 8 -10 -3 -5 -2 -10 3 -10 5 0
28 -38 50 -84 54 -113 137 -237 212 -316 49 -52 55 -56 28 -20 -18 25 -38 49
-44 55 -35 34 -97 129 -153 236 -36 68 -38 76 -23 87 15 10 15 11 -2 5 -18 -6
-36 10 -36 33 0 7 16 15 34 18 81 15 326 157 426 246 46 41 23 29 -75 -41
-110 -77 -211 -135 -296 -170 -39 -16 -75 -29 -79 -29 -19 0 -1 32 38 70 57
56 106 118 127 160 21 42 15 38 -33 -28 -41 -54 -93 -113 -135 -151 l-26 -24
-11 29 c-24 61 -59 195 -64 241 -3 26 -10 71 -15 98 -10 48 -10 47 -6 -21z
m59 -292 c21 -61 16 -74 -17 -45 -12 11 -43 32 -69 47 -27 15 -48 29 -48 31 0
2 19 39 42 82 l42 78 16 -70 c9 -39 24 -94 34 -123z m-239 16 c-4 -7 -35 -55
-68 -105 l-61 -93 -45 0 -45 0 54 48 c30 26 79 73 109 105 55 57 68 68 56 45z
m5 -228 c8 -5 11 -10 5 -10 -5 0 -17 5 -25 10 -8 5 -10 10 -5 10 6 0 17 -5 25
-10z"/>
<path d="M4591 5114 c0 -11 3 -14 6 -6 3 7 2 16 -1 19 -3 4 -6 -2 -5 -13z"/>
<path d="M4602 5060 c0 -14 2 -19 5 -12 2 6 2 18 0 25 -3 6 -5 1 -5 -13z"/>
<path d="M4503 5030 c0 -25 2 -35 4 -22 2 12 2 32 0 45 -2 12 -4 2 -4 -23z"/>
<path d="M4015 4985 c9 -43 135 -298 189 -380 25 -38 41 -71 36 -73 -6 -2 -26
2 -47 9 -20 6 -95 13 -166 14 -70 2 -130 4 -131 6 -2 2 -13 23 -25 47 -12 23
-24 42 -26 42 -3 0 5 -20 17 -45 12 -24 19 -47 17 -50 -7 -7 -103 28 -124 45
-25 20 -95 146 -126 225 -15 38 -28 64 -28 58 -2 -38 73 -198 127 -270 l23
-32 -28 -4 c-28 -4 -27 -4 4 -6 25 -1 39 -11 72 -53 23 -29 56 -68 73 -85 17
-18 30 -34 27 -36 -2 -2 -27 -1 -55 1 -49 4 -51 5 -91 65 -45 68 -77 127 -68
127 3 0 -5 15 -18 33 -14 17 -39 69 -57 115 -18 45 -34 82 -36 82 -8 0 10 -56
37 -117 18 -41 24 -63 16 -63 -7 0 -4 -5 6 -11 9 -6 29 -33 43 -62 34 -66 76
-128 131 -194 l45 -53 -54 0 c-29 1 -75 7 -102 14 -43 11 -46 14 -25 19 13 4
40 7 59 8 19 0 29 3 22 6 -6 2 -10 9 -6 14 3 5 -7 9 -23 8 -24 0 -25 -1 -8 -8
15 -6 9 -10 -30 -15 -45 -6 -66 -3 -130 19 -18 6 -18 5 -2 -5 9 -6 14 -16 11
-22 -5 -7 -2 -9 8 -5 9 3 41 -4 72 -15 l55 -21 -19 -25 c-30 -37 -24 -48 6
-13 24 28 31 31 87 31 34 0 74 -7 89 -14 40 -21 44 -2 6 28 -18 14 -30 27 -28
30 6 5 128 -23 153 -36 29 -15 30 -3 2 16 -14 9 -30 28 -35 42 -5 13 -14 24
-20 24 -6 0 -8 -6 -4 -12 5 -9 2 -9 -9 1 -20 16 -23 26 -4 15 17 -11 2 7 -72
84 -62 64 -80 97 -38 69 12 -8 37 -18 55 -22 22 -4 37 -16 45 -33 15 -36 129
-186 179 -238 l39 -41 -16 -59 c-22 -74 -66 -154 -116 -207 -41 -43 -48 -53
-25 -40 22 13 86 93 107 135 32 63 79 197 79 226 0 22 -10 33 -52 59 -59 36
-120 90 -163 147 -24 31 -26 39 -14 47 19 13 220 5 288 -12 46 -11 58 -20 91
-63 51 -69 158 -184 184 -198 12 -6 -14 25 -56 68 -42 43 -93 100 -113 127
-35 46 -35 47 -13 48 19 1 17 3 -10 12 -26 8 -44 28 -86 97 -58 92 -105 183
-168 320 -22 47 -37 72 -33 55z m61 -659 c1 -10 14 -31 28 -45 14 -15 26 -31
26 -36 0 -5 -10 2 -22 16 -12 13 -33 37 -47 52 -23 25 -23 27 -6 22 17 -6 16
-3 -5 15 l-25 22 24 -14 c13 -8 25 -22 27 -32z m34 -6 c0 -5 -2 -10 -4 -10 -3
0 -8 5 -11 10 -3 6 -1 10 4 10 6 0 11 -4 11 -10z"/>
<path d="M4612 4985 c0 -16 2 -22 5 -12 2 9 2 23 0 30 -3 6 -5 -1 -5 -18z"/>
<path d="M4479 4913 c-9 -38 -15 -70 -13 -72 5 -6 36 109 32 124 -2 8 -10 -15
-19 -52z"/>
<path d="M4671 4954 c0 -11 3 -14 6 -6 3 7 2 16 -1 19 -3 4 -6 -2 -5 -13z"/>
<path d="M1921 4890 l0 -45 15 34 c8 19 12 36 9 39 -3 3 -5 -1 -6 -9 0 -8 -4
-6 -9 6 -7 15 -9 9 -9 -25z"/>
<path d="M2252 4879 c-35 -26 -93 -65 -128 -86 -35 -20 -62 -38 -60 -40 8 -9
204 116 245 155 33 32 1 16 -57 -29z"/>
<path d="M4681 4925 c0 -5 6 -32 13 -60 8 -27 14 -41 14 -30 0 21 -25 107 -27
90z"/>
<path d="M2175 4900 c-33 -10 -54 -19 -47 -19 17 -1 122 29 122 35 0 6 -9 4
-75 -16z"/>
<path d="M4711 4904 c0 -11 3 -14 6 -6 3 7 2 16 -1 19 -3 4 -6 -2 -5 -13z"/>
<path d="M2759 4893 c-13 -16 -12 -17 4 -4 16 13 21 21 13 21 -2 0 -10 -8 -17
-17z"/>
<path d="M1885 4798 l-16 -33 20 25 c20 24 26 40 16 40 -2 0 -12 -15 -20 -32z"/>
<path d="M2255 4780 c-44 -21 -75 -39 -70 -39 6 0 46 17 90 38 44 22 76 39 70
39 -5 0 -46 -17 -90 -38z"/>
<path d="M4716 4740 c10 -110 23 -141 21 -50 0 41 -7 86 -14 100 -12 22 -12
15 -7 -50z"/>
<path d="M4611 4748 c-1 -21 4 -38 9 -38 11 0 11 14 0 50 -7 22 -8 21 -9 -12z"/>
<path d="M1860 4754 c0 -5 -19 -34 -41 -64 -23 -30 -33 -47 -21 -37 30 27 76
96 68 104 -3 3 -6 2 -6 -3z"/>
<path d="M2150 4740 c-13 -8 -12 -10 3 -10 9 0 17 5 17 10 0 12 -1 12 -20 0z"/>
<path d="M2099 4725 c-3 -2 -30 -9 -60 -14 -41 -7 -46 -9 -19 -9 35 0 129 25
99 27 -9 1 -18 -1 -20 -4z"/>
<path d="M2868 4703 c7 -3 16 -2 19 1 4 3 -2 6 -13 5 -11 0 -14 -3 -6 -6z"/>
<path d="M2908 4693 c7 -3 16 -2 19 1 4 3 -2 6 -13 5 -11 0 -14 -3 -6 -6z"/>
<path d="M1899 4664 c-23 -25 -23 -26 -2 -13 13 7 25 19 27 26 8 19 2 16 -25
-13z"/>
<path d="M2970 4658 c0 -7 5 -20 11 -28 8 -12 9 -10 4 7 -5 19 -3 22 11 16 12
-4 15 -3 10 5 -10 16 -36 15 -36 0z"/>
<path d="M2128 4623 c-66 -71 -218 -344 -233 -420 -5 -28 -5 -28 6 -3 6 14 20
48 32 75 11 28 29 57 39 67 10 9 18 25 18 35 0 20 46 99 86 146 13 16 22 32
19 36 -2 5 12 27 31 50 40 46 41 55 2 14z"/>
<path d="M1813 4597 c-70 -57 -78 -68 -21 -27 42 29 88 71 77 69 -2 0 -27 -19
-56 -42z"/>
<path d="M4656 4620 c9 -33 86 -201 91 -197 3 3 -43 109 -85 197 l-12 25 6
-25z"/>
<path d="M1733 4590 c-23 -22 -39 -40 -35 -40 5 0 26 18 47 40 50 51 43 51
-12 0z"/>
<path d="M1921 4594 c0 -11 3 -14 6 -6 3 7 2 16 -1 19 -3 4 -6 -2 -5 -13z"/>
<path d="M2246 4550 c6 -61 14 -95 50 -220 24 -81 44 -126 102 -230 14 -25 21
-40 15 -35 -18 17 -93 128 -93 137 0 5 -7 16 -15 24 -26 26 -17 0 23 -64 47
-77 139 -185 147 -173 3 5 -1 13 -8 18 -16 10 -53 94 -83 191 -22 70 -20 88 6
57 7 -8 18 -15 24 -15 7 0 25 -14 42 -31 28 -30 107 -89 119 -89 3 0 -2 11
-11 25 -9 13 -24 51 -34 82 -11 32 -19 51 -19 42 -1 -9 6 -36 14 -59 8 -24 13
-45 11 -48 -16 -16 -131 102 -177 183 -36 63 -37 41 -4 -84 14 -52 24 -96 21
-98 -7 -7 -37 78 -31 88 4 5 2 9 -4 9 -10 0 -42 92 -61 175 -6 28 -17 77 -25
110 l-14 60 5 -55z"/>
<path d="M3180 4592 c0 -5 7 -29 15 -52 11 -33 12 -46 4 -57 -9 -10 -9 -12 2
-8 10 4 24 -12 45 -50 33 -62 106 -150 174 -210 l45 -39 -40 44 c-22 24 -47
51 -55 60 -30 29 -108 135 -125 168 -18 36 -14 57 5 23 24 -46 310 -245 327
-227 3 3 -3 9 -13 13 -87 32 -260 178 -340 287 -24 32 -44 54 -44 48z"/>
<path d="M2120 4543 c-35 -45 -62 -88 -43 -68 27 29 85 107 82 110 -2 2 -20
-17 -39 -42z"/>
<path d="M2880 4576 c19 -7 43 -17 53 -21 9 -4 17 -4 17 -1 0 8 -69 36 -89 36
-9 -1 0 -7 19 -14z"/>
<path d="M2420 4565 l-25 -13 28 -11 c38 -15 37 -15 37 14 0 28 -5 30 -40 10z"/>
<path d="M1906 4534 c-4 -20 -5 -38 -3 -40 3 -3 8 11 11 32 4 20 5 38 3 40 -3
3 -8 -11 -11 -32z"/>
<path d="M2192 4508 c-5 -19 -5 -37 -1 -42 5 -6 9 -23 9 -39 0 -21 4 -28 14
-24 8 3 17 1 20 -6 3 -7 2 2 -1 18 -6 27 -5 29 10 16 24 -19 21 2 -3 24 -12
11 -20 31 -20 52 0 42 -17 43 -28 1z"/>
<path d="M1690 4515 c-14 -8 -20 -14 -14 -15 5 0 19 7 30 15 24 18 16 19 -16
0z"/>
<path d="M2427 4523 c-8 -13 8 -98 24 -122 9 -13 9 -12 4 4 -4 11 -10 45 -14
75 -3 31 -9 50 -14 43z"/>
<path d="M1892 4450 c0 -19 2 -27 5 -17 2 9 2 25 0 35 -3 9 -5 1 -5 -18z"/>
<path d="M2130 4430 c-13 -27 -21 -52 -18 -55 3 -3 15 18 27 46 28 67 21 74
-9 9z"/>
<path d="M2488 4463 c-2 -10 -1 -36 3 -58 6 -37 6 -36 8 18 1 57 -3 73 -11 40z"/>
<path d="M2715 4462 c-33 -28 -55 -65 -54 -92 1 -24 1 -23 10 5 4 17 22 45 38
63 39 42 78 42 137 2 24 -16 44 -25 44 -20 0 5 -17 21 -37 35 -45 30 -108 33
-138 7z"/>
<path d="M3778 4463 c7 -3 16 -2 19 1 4 3 -2 6 -13 5 -11 0 -14 -3 -6 -6z"/>
<path d="M3460 4404 c0 -6 36 -46 81 -89 44 -42 78 -79 75 -83 -8 -8 46 -42
56 -36 11 7 -17 46 -44 60 -12 6 -55 45 -95 85 -40 41 -73 69 -73 63z"/>
<path d="M3660 4400 c-20 -6 -21 -8 -5 -8 11 0 31 4 45 8 20 6 21 8 5 8 -11 0
-31 -4 -45 -8z"/>
<path d="M2161 4376 c-12 -14 -37 -184 -28 -192 2 -3 10 37 16 88 7 51 17 96
24 100 18 11 35 -10 46 -55 9 -41 9 -41 10 -9 1 36 -24 82 -44 82 -7 0 -18 -6
-24 -14z"/>
<path d="M4782 4351 c12 -22 24 -38 26 -36 5 4 -37 75 -44 75 -3 0 6 -18 18
-39z"/>
<path d="M2011 4315 c-1 -49 -4 -66 -11 -55 -8 12 -10 10 -10 -8 0 -13 4 -21
9 -18 5 3 12 -16 16 -42 9 -64 25 -125 32 -119 3 3 0 22 -7 42 -7 21 -16 90
-20 154 -6 94 -7 103 -9 46z"/>
<path d="M2241 4364 c0 -11 3 -14 6 -6 3 7 2 16 -1 19 -3 4 -6 -2 -5 -13z"/>
<path d="M1883 4310 c0 -36 2 -50 4 -32 2 17 2 47 0 65 -2 17 -4 3 -4 -33z"/>
<path d="M2791 4354 c0 -11 3 -14 6 -6 3 7 2 16 -1 19 -3 4 -6 -2 -5 -13z"/>
<path d="M4640 4363 c0 -16 112 -133 128 -133 6 0 -4 15 -22 33 -19 17 -50 50
-70 72 -19 22 -36 35 -36 28z"/>
<path d="M2907 4320 c5 -36 2 -43 -31 -75 -41 -39 -33 -49 10 -12 21 18 28 35
32 75 3 32 1 52 -6 52 -6 0 -8 -16 -5 -40z"/>
<path d="M2502 4320 c0 -19 2 -27 5 -17 2 9 2 25 0 35 -3 9 -5 1 -5 -18z"/>
<path d="M1982 4305 c0 -16 2 -22 5 -12 2 9 2 23 0 30 -3 6 -5 -1 -5 -18z"/>
<path d="M2097 4293 c-4 -3 -7 -24 -7 -46 0 -51 7 -45 13 11 4 45 4 46 -6 35z"/>
<path d="M2666 4275 c20 -50 103 -89 141 -66 15 10 13 11 -17 10 -55 -2 -57
-1 -95 38 -21 22 -33 29 -29 18z"/>
<path d="M4170 4280 c0 -5 8 -10 19 -10 10 0 35 -7 55 -15 19 -8 68 -17 108
-19 53 -3 65 -2 43 5 -16 5 -46 9 -65 10 -19 1 -59 10 -88 20 -60 22 -72 23
-72 9z"/>
<path d="M2276 4267 c3 -10 9 -15 12 -12 3 3 0 11 -7 18 -10 9 -11 8 -5 -6z"/>
<path d="M4187 4250 c14 -13 72 -29 77 -22 3 5 -15 12 -40 18 -24 6 -41 7 -37
4z"/>
<path d="M2196 4241 c-4 -5 3 -7 14 -4 23 6 26 13 6 13 -8 0 -17 -4 -20 -9z"/>
<path d="M3901 4206 c-1 -49 -36 -122 -67 -143 -18 -11 -36 -13 -69 -9 -25 4
-45 11 -45 17 0 5 -6 9 -14 9 -8 0 -17 6 -19 13 -4 9 -6 9 -6 -1 -1 -19 60
-52 97 -52 87 0 153 85 133 170 l-9 35 -1 -39z"/>
<path d="M4570 4168 c-47 -82 -69 -110 -82 -102 -7 4 -8 2 -4 -5 7 -11 -2 -24
-101 -131 -50 -54 -53 -59 -53 -111 0 -30 3 -71 6 -92 l7 -38 19 32 c14 23 18
42 14 68 l-6 36 16 -25 c10 -17 13 -19 8 -5 -3 11 -9 40 -11 65 -5 43 -3 47
52 107 32 34 63 60 69 56 6 -3 8 -3 4 1 -3 4 19 50 49 102 31 52 54 97 52 99
-2 2 -20 -24 -39 -57z"/>
<path d="M2161 4178 c-10 -24 -16 -50 -13 -58 3 -8 11 5 18 32 6 25 14 51 18
57 4 6 4 11 1 11 -3 0 -14 -19 -24 -42z"/>
<path d="M4241 4187 c-2 -38 -44 -99 -125 -181 -81 -81 -82 -100 -4 -45 16 12
31 20 32 18 2 -2 -8 -29 -22 -59 -14 -30 -24 -61 -23 -69 1 -7 -1 -11 -6 -8
-4 3 -8 -6 -8 -19 0 -13 2 -24 5 -24 3 0 21 30 41 68 66 121 128 294 116 324
-4 8 -6 7 -6 -5z"/>
<path d="M2091 4146 c-1 -26 2 -37 9 -30 6 6 6 21 1 39 -9 30 -9 30 -10 -9z"/>
<path d="M2250 4156 c0 -8 4 -17 9 -21 6 -3 9 4 8 15 -1 23 -17 28 -17 6z"/>
<path d="M2590 4160 c0 -5 19 -10 42 -10 49 0 47 5 -4 14 -24 4 -38 3 -38 -4z"/>
<path d="M2858 4165 c-2 -2 -41 -5 -86 -6 -87 -3 -113 -12 -62 -22 52 -11 203
12 168 25 -9 4 -18 5 -20 3z"/>
<path d="M2296 4068 c4 -34 11 -71 16 -80 5 -11 5 -18 -1 -18 -23 0 -72 37
-82 64 -10 22 -10 33 1 50 12 19 12 20 -4 7 -13 -11 -16 -23 -11 -50 6 -34 6
-35 -9 -16 -12 15 -15 16 -10 3 3 -9 29 -30 58 -47 57 -31 83 -63 93 -111 3
-17 10 -33 16 -37 6 -4 8 0 4 11 -13 34 -57 227 -57 250 0 14 -5 28 -11 31 -7
5 -8 -13 -3 -57z"/>
<path d="M4946 4116 c21 -15 30 -14 19 3 -3 6 -14 11 -23 11 -13 0 -13 -2 4
-14z"/>
<path d="M2102 4101 c-8 -5 -13 -19 -11 -32 1 -13 -1 -43 -5 -67 -6 -31 -4
-47 6 -59 11 -14 14 -4 18 68 5 79 6 83 19 59 10 -16 17 -68 20 -150 l6 -125
5 104 5 105 28 -42 c29 -44 35 -91 16 -139 -8 -21 -7 -25 1 -17 6 6 14 30 17
53 l6 42 40 -38 41 -38 -45 55 c-49 59 -101 135 -134 194 -14 25 -24 33 -33
27z"/>
<path d="M2050 4048 c0 -9 5 -20 10 -23 13 -8 13 5 0 25 -8 13 -10 13 -10 -2z"/>
<path d="M3665 4004 c56 -44 185 -77 221 -55 17 9 17 10 -6 11 -14 0 -45 9
-69 21 -34 15 -46 17 -52 7 -6 -10 -20 -7 -61 10 -36 14 -46 16 -33 6z"/>
<path d="M4482 3945 c0 -16 2 -22 5 -12 2 9 2 23 0 30 -3 6 -5 -1 -5 -18z"/>
<path d="M4349 3943 c-13 -16 -12 -17 4 -4 16 13 21 21 13 21 -2 0 -10 -8 -17
-17z"/>
<path d="M4473 3850 c0 -36 2 -50 4 -32 2 17 2 47 0 65 -2 17 -4 3 -4 -33z"/>
<path d="M4189 3807 c-26 -18 -77 -48 -114 -67 -51 -26 -63 -36 -47 -38 29 -4
28 -18 -9 -88 -78 -146 -238 -325 -382 -427 -27 -19 -55 -44 -63 -55 -8 -12
-20 -19 -27 -17 -6 3 -32 -11 -56 -30 -54 -43 -40 -45 39 -5 62 31 67 30 50
-14 -19 -50 -46 -301 -59 -541 -5 -88 -15 -170 -24 -200 -9 -27 -15 -50 -13
-52 2 -3 34 73 51 122 6 17 9 15 27 -20 12 -22 43 -67 71 -100 74 -88 249
-265 258 -260 4 3 14 -6 23 -20 9 -14 22 -25 29 -25 32 0 64 -101 73 -237 4
-51 11 -93 17 -93 6 0 7 24 4 63 -4 39 -3 53 3 37 17 -50 11 -104 -12 -125
-17 -14 -19 -20 -8 -23 8 -3 33 15 58 43 33 37 40 50 30 57 -9 7 -10 11 -2 14
8 3 10 20 7 46 -4 27 -2 43 7 48 7 4 9 13 6 19 -4 6 -12 9 -17 6 -5 -4 -9 -1
-9 6 0 6 -15 26 -34 44 -25 23 -38 29 -45 22 -11 -11 -16 3 -12 27 2 11 -147
156 -161 156 -19 0 -152 132 -186 184 -18 28 -46 87 -63 131 -34 87 -46 107
-35 60 5 -24 4 -26 -4 -12 -12 19 -15 317 -4 404 8 63 18 72 47 45 25 -22 80
-52 98 -52 6 0 -5 17 -24 37 -25 25 -39 52 -47 86 -6 28 -8 52 -6 54 3 3 8
-12 12 -33 7 -41 32 -99 40 -92 2 2 -1 20 -6 39 -13 45 -12 190 1 209 8 11 9
5 4 -22 -4 -25 -2 -38 5 -38 8 0 10 -14 6 -42 l-7 -43 20 35 c10 19 17 38 15
42 -3 5 0 16 5 25 8 14 11 15 11 3 1 -21 48 82 63 138 8 31 25 59 52 84 46 45
54 47 47 13 -6 -35 23 -107 55 -136 15 -13 21 -16 14 -6 -12 15 -11 17 5 18
11 0 14 3 7 6 -7 2 -13 12 -13 21 0 11 -3 13 -8 5 -9 -14 -2 147 7 164 3 7 5
-21 3 -61 -3 -45 0 -81 7 -93 10 -15 11 -11 7 22 -7 65 10 184 30 206 20 22
12 38 -11 19 -32 -27 -23 -1 21 58 25 34 52 62 60 62 7 0 25 18 39 40 14 22
30 40 35 40 13 0 13 -17 0 -25 -5 -3 -10 -14 -10 -23 0 -13 5 -11 23 10 20 24
92 63 110 60 10 -3 9 20 -4 59 -20 58 -29 61 -80 26z m-79 -122 c-17 -25 -36
-43 -41 -39 -10 6 -4 18 35 62 34 39 38 24 6 -23z m-189 -341 c-5 -21 -9 -30
-10 -19 -1 24 10 67 15 62 3 -2 0 -22 -5 -43z m-372 -237 c-2 -1 -13 -9 -24
-17 -19 -14 -19 -14 -6 3 7 9 18 17 24 17 6 0 8 -1 6 -3z m508 -1247 c9 0 13
-6 9 -15 -3 -9 3 -23 14 -32 12 -11 20 -30 20 -48 0 -24 -2 -27 -11 -15 -7 11
-8 1 -4 -36 5 -37 3 -54 -6 -60 -9 -5 -10 -2 -5 11 7 19 -12 137 -24 145 -4 3
-10 21 -14 40 -3 19 -3 29 0 23 3 -7 13 -13 21 -13z"/>
<path d="M2251 3794 c-19 -8 -31 -17 -28 -21 4 -3 13 -1 20 5 7 7 31 16 53 21
27 6 32 9 14 10 -14 0 -40 -6 -59 -15z"/>
<path d="M2491 3796 c2 -2 15 -9 29 -15 24 -11 24 -11 6 3 -16 13 -49 24 -35
12z"/>
<path d="M4482 3760 c0 -14 2 -19 5 -12 2 6 2 18 0 25 -3 6 -5 1 -5 -13z"/>
<path d="M2619 3694 c41 -43 86 -83 100 -88 35 -12 67 -42 82 -77 6 -16 14
-28 16 -25 3 3 -6 23 -18 46 -22 39 -61 69 -91 71 -7 0 -37 29 -66 65 -29 35
-63 69 -75 75 -12 7 12 -23 52 -67z"/>
<path d="M2098 3744 c-16 -8 -28 -17 -28 -19 0 -4 72 24 79 31 11 10 -27 2
-51 -12z"/>
<path d="M4286 3714 c-10 -26 -7 -36 10 -30 8 3 13 2 10 -3 -7 -10 22 -37 30
-28 6 6 -21 63 -35 71 -5 3 -12 -1 -15 -10z"/>
<path d="M4348 3664 c-3 -13 4 -31 19 -50 21 -25 23 -25 13 -5 -7 14 -16 36
-20 50 -6 24 -7 24 -12 5z"/>
<path d="M1919 3610 c-29 -28 -50 -52 -48 -55 3 -2 29 21 59 51 67 68 59 71
-11 4z"/>
<path d="M4181 3590 c-30 -22 -60 -40 -67 -40 -8 0 -28 -9 -46 -21 -18 -12
-25 -18 -14 -15 10 4 24 2 31 -4 9 -8 14 -6 18 4 3 8 33 33 66 55 33 23 63 45
66 51 9 15 5 12 -54 -30z"/>
<path d="M1755 3536 c-51 -23 -91 -67 -81 -89 2 -7 5 -6 5 4 1 22 49 64 101
87 25 11 41 20 35 21 -5 0 -33 -10 -60 -23z"/>
<path d="M3103 3553 c15 -2 37 -2 50 0 12 2 0 4 -28 4 -27 0 -38 -2 -22 -4z"/>
<path d="M3188 3543 c6 -2 18 -2 25 0 6 3 1 5 -13 5 -14 0 -19 -2 -12 -5z"/>
<path d="M3248 3533 c12 -2 30 -2 40 0 9 3 -1 5 -23 4 -22 0 -30 -2 -17 -4z"/>
<path d="M3310 3526 c0 -2 7 -7 16 -10 8 -3 12 -2 9 4 -6 10 -25 14 -25 6z"/>
<path d="M3363 3503 c9 -2 23 -2 30 0 6 3 -1 5 -18 5 -16 0 -22 -2 -12 -5z"/>
<path d="M4081 3464 c0 -11 3 -14 6 -6 3 7 2 16 -1 19 -3 4 -6 -2 -5 -13z"/>
<path d="M3502 3445 c4 -6 12 -22 17 -36 6 -15 10 -18 10 -8 1 9 -7 25 -16 36
-10 10 -15 14 -11 8z"/>
<path d="M4002 3440 c0 -14 2 -19 5 -12 2 6 2 18 0 25 -3 6 -5 1 -5 -13z"/>
<path d="M2876 3383 c19 -31 34 -61 34 -67 0 -5 3 -7 6 -3 7 7 -56 127 -67
127 -4 0 8 -26 27 -57z"/>
<path d="M4052 3395 c-12 -25 -20 -45 -17 -45 7 0 47 81 43 86 -3 2 -14 -17
-26 -41z"/>
<path d="M1602 3404 c-12 -8 -22 -25 -21 -37 1 -20 1 -20 10 4 5 15 20 31 32
37 12 6 17 11 12 11 -6 1 -21 -6 -33 -15z"/>
<path d="M2958 3403 c18 -2 45 -2 60 0 15 2 0 4 -33 4 -33 0 -45 -2 -27 -4z"/>
<path d="M4002 3355 c-1 -37 2 -54 7 -45 5 8 5 35 1 60 l-7 45 -1 -60z"/>
<path d="M3496 3365 c-11 -8 -15 -15 -9 -15 6 0 16 7 23 15 16 19 11 19 -14 0z"/>
<path d="M1766 3361 c-3 -5 4 -11 16 -14 29 -8 32 -4 8 11 -10 6 -21 8 -24 3z"/>
<path d="M3258 3343 c7 -3 16 -2 19 1 4 3 -2 6 -13 5 -11 0 -14 -3 -6 -6z"/>
<path d="M3378 3333 c6 -2 18 -2 25 0 6 3 1 5 -13 5 -14 0 -19 -2 -12 -5z"/>
<path d="M1841 3312 c6 -10 17 -19 23 -19 6 0 22 -3 36 -8 34 -10 24 -2 -28
24 -39 20 -42 20 -31 3z"/>
<path d="M1726 3295 c-3 -9 -6 -24 -5 -33 0 -9 5 -4 10 12 9 32 6 48 -5 21z"/>
<path d="M1827 3253 c-20 -40 -30 -86 -17 -78 5 3 10 15 10 26 0 11 7 33 15
49 9 17 13 30 11 30 -3 0 -12 -12 -19 -27z"/>
<path d="M1958 3273 c7 -3 16 -2 19 1 4 3 -2 6 -13 5 -11 0 -14 -3 -6 -6z"/>
<path d="M1994 3263 c7 -7 98 -5 105 3 2 2 -22 4 -54 4 -32 0 -55 -3 -51 -7z"/>
<path d="M2932 3240 c0 -19 2 -27 5 -17 2 9 2 25 0 35 -3 9 -5 1 -5 -18z"/>
<path d="M1524 3206 c-6 -6 -8 -20 -4 -31 6 -16 8 -15 13 10 6 35 6 37 -9 21z"/>
<path d="M2236 3164 c46 -54 81 -81 91 -71 2 3 -6 11 -19 18 -24 12 -97 88
-98 102 0 4 -5 7 -11 7 -6 0 11 -25 37 -56z"/>
<path d="M1710 3178 c0 -19 2 -20 10 -8 13 19 13 30 0 30 -5 0 -10 -10 -10
-22z"/>
<path d="M1475 3180 c-16 -7 -17 -9 -3 -9 9 -1 20 4 23 9 7 11 7 11 -20 0z"/>
<path d="M1414 3159 c-3 -6 -15 -8 -27 -5 -14 3 -17 2 -9 -6 8 -8 20 -6 44 5
19 9 26 17 16 17 -9 0 -20 -5 -24 -11z"/>
<path d="M1328 3153 c6 -2 18 -2 25 0 6 3 1 5 -13 5 -14 0 -19 -2 -12 -5z"/>
<path d="M1506 3113 c-3 -21 -5 -65 -4 -98 1 -50 2 -44 9 35 8 100 6 126 -5
63z"/>
<path d="M1731 3145 c1 -19 18 -51 18 -35 0 8 -4 22 -9 30 -5 8 -9 11 -9 5z"/>
<path d="M2340 3083 c0 -13 14 -28 30 -31 11 -3 10 2 -4 17 -20 22 -26 25 -26
14z"/>
<path d="M2856 3028 c-7 -18 -16 -71 -18 -118 -5 -77 -2 -82 16 -26 6 17 8 17
24 4 24 -21 171 -31 247 -16 66 13 202 77 280 132 27 20 47 36 43 36 -12 0
-107 -51 -122 -65 -8 -8 -45 -31 -82 -50 -52 -27 -79 -35 -120 -35 -47 0 -58
4 -104 43 -85 68 -110 83 -121 66 -7 -10 -9 -4 -7 20 4 46 -18 52 -36 9z m71
-144 c-3 -3 -12 -4 -19 -1 -8 3 -5 6 6 6 11 1 17 -2 13 -5z"/>
<path d="M1112 2995 c0 -16 2 -22 5 -12 2 9 2 23 0 30 -3 6 -5 -1 -5 -18z"/>
<path d="M1774 3004 c3 -9 6 -37 6 -62 0 -34 3 -43 10 -32 8 12 10 12 10 1 0
-8 3 -12 6 -9 6 7 -25 118 -33 118 -3 0 -2 -7 1 -16z"/>
<path d="M2415 2984 c-4 -22 -9 -48 -13 -59 -8 -27 -2 -138 8 -148 11 -12 20
48 21 147 2 94 -6 121 -16 60z"/>
<path d="M1052 2989 c-13 -5 -32 -15 -43 -22 -17 -13 -14 -14 31 -13 48 1 58
8 42 32 -4 8 -15 8 -30 3z"/>
<path d="M1816 2860 c4 -19 11 -44 15 -55 6 -14 7 -9 3 15 -4 19 -11 44 -15
55 -6 14 -7 9 -3 -15z"/>
<path d="M2353 2795 c0 -27 2 -38 4 -22 2 15 2 37 0 50 -2 12 -4 0 -4 -28z"/>
<path d="M1512 2805 c0 -16 2 -22 5 -12 2 9 2 23 0 30 -3 6 -5 -1 -5 -18z"/>
<path d="M1841 2764 c0 -11 3 -14 6 -6 3 7 2 16 -1 19 -3 4 -6 -2 -5 -13z"/>
<path d="M1512 2725 c0 -16 2 -22 5 -12 2 9 2 23 0 30 -3 6 -5 -1 -5 -18z"/>
<path d="M1852 2725 c0 -11 4 -31 8 -45 6 -20 8 -21 8 -5 0 11 -4 31 -8 45 -6
20 -8 21 -8 5z"/>
<path d="M2805 2682 c-4 -24 -5 -46 -2 -49 8 -7 20 63 14 79 -2 7 -7 -6 -12
-30z"/>
<path d="M716 2659 c-14 -29 -26 -60 -26 -68 1 -9 15 12 32 47 17 34 28 65 25
68 -2 3 -16 -19 -31 -47z"/>
<path d="M1877 2610 c6 -48 21 -96 22 -70 0 8 -6 38 -14 65 l-15 50 7 -45z"/>
<path d="M1531 2624 c0 -11 3 -14 6 -6 3 7 2 16 -1 19 -3 4 -6 -2 -5 -13z"/>
<path d="M2352 2615 c0 -16 2 -22 5 -12 2 9 2 23 0 30 -3 6 -5 -1 -5 -18z"/>
<path d="M1498 2553 c-21 -24 -38 -52 -37 -61 0 -11 4 -8 10 8 6 14 24 40 41
57 18 18 30 34 27 36 -2 2 -21 -16 -41 -40z"/>
<path d="M2791 2584 c0 -11 3 -14 6 -6 3 7 2 16 -1 19 -3 4 -6 -2 -5 -13z"/>
<path d="M2362 2560 c0 -14 2 -19 5 -12 2 6 2 18 0 25 -3 6 -5 1 -5 -13z"/>
<path d="M671 2523 c-1 -6 -4 -20 -7 -30 -5 -17 -5 -17 6 0 6 10 9 23 6 30 -3
9 -5 9 -5 0z"/>
<path d="M2852 2490 c0 -14 2 -19 5 -12 2 6 2 18 0 25 -3 6 -5 1 -5 -13z"/>
<path d="M1921 2444 c0 -11 3 -14 6 -6 3 7 2 16 -1 19 -3 4 -6 -2 -5 -13z"/>
<path d="M2783 2425 c0 -22 2 -30 4 -17 2 12 2 30 0 40 -3 9 -5 -1 -4 -23z"/>
<path d="M2861 2445 c-1 -27 32 -192 36 -180 1 6 -6 53 -16 105 -11 52 -20 86
-20 75z"/>
<path d="M3810 2449 c26 -17 70 -40 70 -35 0 5 -69 46 -78 46 -4 0 0 -5 8 -11z"/>
<path d="M1453 2385 c0 -38 2 -53 4 -32 2 20 2 52 0 70 -2 17 -4 1 -4 -38z"/>
<path d="M2391 2424 c0 -11 3 -14 6 -6 3 7 2 16 -1 19 -3 4 -6 -2 -5 -13z"/>
<path d="M662 2390 c0 -19 2 -27 5 -17 2 9 2 25 0 35 -3 9 -5 1 -5 -18z"/>
<path d="M631 2384 c0 -11 3 -14 6 -6 3 7 2 16 -1 19 -3 4 -6 -2 -5 -13z"/>
<path d="M2771 2373 c-1 -6 -4 -20 -7 -30 -5 -17 -5 -17 6 0 6 10 9 23 6 30
-3 9 -5 9 -5 0z"/>
<path d="M3954 2371 c7 -11 46 -35 46 -28 0 3 -12 12 -26 22 -15 9 -23 12 -20
6z"/>
<path d="M1221 2292 c-1 -51 17 -94 60 -143 33 -38 29 -25 -15 38 -17 25 -31
63 -36 95 l-8 53 -1 -43z"/>
<path d="M2411 2284 c0 -11 3 -14 6 -6 3 7 2 16 -1 19 -3 4 -6 -2 -5 -13z"/>
<path d="M4055 2280 c10 -11 20 -20 23 -20 3 0 -3 9 -13 20 -10 11 -20 20 -23
20 -3 0 3 -9 13 -20z"/>
<path d="M2422 2190 c0 -63 0 -64 9 -22 4 24 4 52 -1 65 -6 16 -9 5 -8 -43z"/>
<path d="M4100 2236 c0 -6 92 -57 97 -53 2 2 -19 16 -47 31 -27 15 -50 25 -50
22z"/>
<path d="M2891 2174 c0 -11 3 -14 6 -6 3 7 2 16 -1 19 -3 4 -6 -2 -5 -13z"/>
<path d="M1986 2159 c-9 -13 -30 -45 -47 -70 -54 -86 -152 -126 -200 -83 -16
15 -24 12 -104 -31 -64 -35 -89 -45 -98 -36 -6 6 -30 11 -53 11 -53 0 -85 25
-135 104 -21 34 -39 58 -39 53 0 -17 82 -136 104 -150 13 -9 41 -19 62 -23 21
-4 42 -11 45 -16 3 -5 40 9 82 30 l76 38 4 -26 c3 -22 4 -21 6 6 1 39 26 51
54 27 30 -28 120 -23 184 10 78 40 87 38 84 -23 -1 -23 0 -23 8 -5 14 29 12
134 -3 174 l-12 35 -18 -25z"/>
<path d="M4239 2133 c5 -10 22 -29 37 -43 24 -22 23 -20 -6 18 -35 44 -47 54
-31 25z"/>
<path d="M2901 2124 c0 -11 3 -14 6 -6 3 7 2 16 -1 19 -3 4 -6 -2 -5 -13z"/>
<path d="M2410 2014 c0 -60 -2 -172 -4 -249 -4 -139 -4 -140 5 -35 9 114 12
381 4 388 -3 3 -5 -44 -5 -104z"/>
<path d="M2902 2065 c0 -16 2 -22 5 -12 2 9 2 23 0 30 -3 6 -5 -1 -5 -18z"/>
<path d="M4316 2047 c3 -10 9 -15 12 -12 3 3 0 11 -7 18 -10 9 -11 8 -5 -6z"/>
<path d="M3440 2012 c0 -23 5 -42 10 -42 7 0 8 14 4 38 -9 51 -14 53 -14 4z"/>
<path d="M2890 2015 c0 -5 5 -17 10 -25 5 -8 10 -10 10 -5 0 6 -5 17 -10 25
-5 8 -10 11 -10 5z"/>
<path d="M1691 1895 c1 -19 18 -51 18 -35 0 8 -4 22 -9 30 -5 8 -9 11 -9 5z"/>
<path d="M2920 1870 c0 -14 7 -68 16 -120 8 -52 14 -130 13 -173 -1 -42 1 -80
4 -83 13 -14 27 38 20 78 -4 24 -6 47 -5 52 6 20 -20 209 -33 239 -13 30 -14
30 -15 7z"/>
<path d="M553 1845 c0 -22 2 -30 4 -17 2 12 2 30 0 40 -3 9 -5 -1 -4 -23z"/>
<path d="M2003 1805 c0 -38 2 -53 4 -32 2 20 2 52 0 70 -2 17 -4 1 -4 -38z"/>
<path d="M536 1708 c-7 -96 -14 -416 -7 -358 l5 45 7 -45 c6 -40 7 -37 6 25 0
39 1 143 2 233 3 173 -3 223 -13 100z"/>
<path d="M1730 1771 c0 -6 4 -13 10 -16 6 -3 7 1 4 9 -7 18 -14 21 -14 7z"/>
<path d="M4167 1740 c3 -11 7 -20 9 -20 2 0 4 9 4 20 0 11 -4 20 -9 20 -5 0
-7 -9 -4 -20z"/>
<path d="M3047 1735 c3 -8 9 -12 14 -9 12 7 11 11 -5 17 -10 4 -13 1 -9 -8z"/>
<path d="M1792 1705 c0 -16 2 -22 5 -12 2 9 2 23 0 30 -3 6 -5 -1 -5 -18z"/>
<path d="M3075 1700 c3 -5 8 -10 11 -10 2 0 4 5 4 10 0 6 -5 10 -11 10 -5 0
-7 -4 -4 -10z"/>
<path d="M4172 1680 c0 -14 2 -19 5 -12 2 6 2 18 0 25 -3 6 -5 1 -5 -13z"/>
<path d="M3100 1687 c0 -3 32 -33 70 -67 39 -34 70 -60 70 -57 0 3 -31 33 -70
67 -38 34 -70 60 -70 57z"/>
<path d="M1993 1635 c0 -22 2 -30 4 -17 2 12 2 30 0 40 -3 9 -5 -1 -4 -23z"/>
<path d="M4680 1635 c13 -14 26 -25 28 -25 3 0 -5 11 -18 25 -13 14 -26 25
-28 25 -3 0 5 -11 18 -25z"/>
<path d="M1781 1624 c0 -11 3 -14 6 -6 3 7 2 16 -1 19 -3 4 -6 -2 -5 -13z"/>
<path d="M1957 1403 c-16 -98 -40 -233 -53 -301 -14 -67 -24 -128 -21 -135 9
-27 112 552 105 593 -2 11 -16 -59 -31 -157z"/>
<path d="M1802 1560 c57 -161 68 -213 68 -325 0 -65 4 -116 10 -120 13 -8 13
131 0 214 -11 62 -63 228 -77 240 -3 3 -4 -1 -1 -9z"/>
<path d="M4766 1522 c-3 -6 -2 -14 4 -17 20 -12 68 -120 90 -202 12 -46 24
-83 27 -83 9 0 -10 86 -34 153 -14 38 -22 71 -20 74 3 2 -1 12 -9 21 -8 10
-23 28 -33 41 -11 15 -20 20 -25 13z"/>
<path d="M3300 1517 c0 -3 17 -17 37 -33 20 -15 33 -23 29 -16 -8 13 -66 56
-66 49z"/>
<path d="M2950 1475 c-1 -5 -1 -44 0 -85 1 -41 -4 -123 -10 -183 l-11 -107 32
-73 c18 -39 40 -97 50 -127 9 -30 18 -46 18 -34 1 30 -27 119 -58 183 -25 52
-26 59 -15 106 14 57 16 267 4 305 -4 14 -9 21 -10 15z"/>
<path d="M4850 1452 c0 -10 119 -96 124 -91 2 2 -25 25 -60 52 -35 26 -64 44
-64 39z"/>
<path d="M4172 1415 c0 -16 2 -22 5 -12 2 9 2 23 0 30 -3 6 -5 -1 -5 -18z"/>
<path d="M2465 1405 c16 -46 16 -54 -4 -93 -29 -57 -25 -77 4 -22 28 53 30 76
9 110 -10 17 -13 18 -9 5z"/>
<path d="M3485 1386 c17 -14 34 -26 39 -26 11 0 11 0 -34 29 l-35 23 30 -26z"/>
<path d="M3720 1400 c-8 -5 -10 -10 -5 -10 6 0 17 5 25 10 8 5 11 10 5 10 -5
0 -17 -5 -25 -10z"/>
<path d="M3570 1374 l-25 -15 25 7 c14 3 29 10 35 15 15 14 -7 10 -35 -7z"/>
<path d="M3648 1373 c7 -3 16 -2 19 1 4 3 -2 6 -13 5 -11 0 -14 -3 -6 -6z"/>
<path d="M4181 1344 c0 -11 3 -14 6 -6 3 7 2 16 -1 19 -3 4 -6 -2 -5 -13z"/>
<path d="M5030 1305 c14 -16 26 -32 28 -34 1 -2 4 -2 7 1 3 2 -10 18 -28 34
l-32 29 25 -30z"/>
<path d="M611 1294 c0 -11 3 -14 6 -6 3 7 2 16 -1 19 -3 4 -6 -2 -5 -13z"/>
<path d="M552 1245 c0 -16 2 -22 5 -12 2 9 2 23 0 30 -3 6 -5 -1 -5 -18z"/>
<path d="M514 1115 c0 -60 1 -84 3 -52 2 32 2 81 0 110 -2 29 -3 3 -3 -58z"/>
<path d="M560 1090 c-1 -69 -6 -138 -10 -155 -7 -30 -7 -30 -13 -5 -3 14 -8
34 -11 45 -3 11 -3 0 0 -25 4 -25 10 -76 14 -115 4 -43 7 -56 8 -32 1 20 6 37
11 37 4 0 11 55 15 123 9 153 9 153 -2 207 -8 38 -10 26 -12 -80z"/>
<path d="M4901 1175 c1 -19 18 -51 18 -35 0 8 -4 22 -9 30 -5 8 -9 11 -9 5z"/>
<path d="M4266 1137 c3 -10 9 -15 12 -12 3 3 0 11 -7 18 -10 9 -11 8 -5 -6z"/>
<path d="M4282 1065 c0 -16 2 -22 5 -12 2 9 2 23 0 30 -3 6 -5 -1 -5 -18z"/>
<path d="M5210 1045 c0 -5 5 -17 10 -25 5 -8 10 -10 10 -5 0 6 -5 17 -10 25
-5 8 -10 11 -10 5z"/>
<path d="M4291 1014 c0 -11 3 -14 6 -6 3 7 2 16 -1 19 -3 4 -6 -2 -5 -13z"/>
<path d="M4301 970 c-1 -22 20 -93 25 -87 3 3 -1 27 -10 53 -8 27 -15 42 -15
34z"/>
<path d="M1866 909 c-2 -8 -30 -124 -61 -259 -30 -135 -67 -279 -81 -322 -14
-42 -27 -98 -30 -125 -2 -26 -5 -59 -7 -73 -1 -14 -4 -27 -8 -30 -3 -3 -10
-26 -16 -53 -7 -34 -7 -47 1 -47 6 0 23 47 37 105 15 57 22 102 16 98 -6 -4
-8 0 -4 11 4 10 7 22 7 27 0 6 3 8 8 6 4 -3 8 5 8 16 1 12 9 47 17 77 9 30 18
69 20 85 3 17 19 91 37 165 39 166 70 323 65 329 -3 2 -6 -2 -9 -10z"/>
<path d="M2446 635 c1 -238 -1 -277 -18 -330 -11 -36 -21 -101 -23 -160 l-4
-100 9 95 c5 52 18 124 29 160 24 83 35 416 18 530 -11 67 -12 45 -11 -195z"/>
<path d="M4353 790 c0 -41 2 -58 4 -37 2 20 2 54 0 75 -2 20 -4 3 -4 -38z"/>
<path d="M3037 775 c3 -38 7 -72 9 -74 7 -8 2 84 -6 114 -5 18 -6 2 -3 -40z"/>
<path d="M5013 818 c2 -15 6 -30 10 -34 10 -10 8 17 -3 41 -8 17 -9 16 -7 -7z"/>
<path d="M5287 770 c3 -41 9 -82 14 -90 11 -20 3 96 -10 135 -7 22 -8 11 -4
-45z"/>
<path d="M1795 820 c-11 -4 -62 -13 -113 -20 -50 -7 -92 -16 -92 -20 0 -4 -14
-10 -30 -14 -17 -3 -46 -16 -66 -30 -47 -32 -21 -43 40 -16 64 27 204 30 230
5 21 -21 41 1 50 56 8 48 7 49 -19 39z"/>
<path d="M1394 674 c-18 -14 -18 -15 4 -4 12 6 22 13 22 15 0 8 -5 6 -26 -11z"/>
<path d="M4352 660 c0 -14 2 -19 5 -12 2 6 2 18 0 25 -3 6 -5 1 -5 -13z"/>
<path d="M5302 630 c0 -14 2 -19 5 -12 2 6 2 18 0 25 -3 6 -5 1 -5 -13z"/>
<path d="M4365 570 c18 -108 24 -225 21 -390 -4 -171 -4 -175 3 -49 4 75 11
141 15 148 10 16 -12 225 -30 281 -12 37 -13 39 -9 10z"/>
<path d="M5312 565 c0 -16 6 -46 13 -65 17 -45 18 -29 0 40 -9 39 -13 46 -13
25z"/>
<path d="M5096 545 c4 -16 6 -39 6 -50 -1 -15 1 -16 7 -6 7 11 10 9 16 -8 4
-13 9 -21 11 -18 2 2 -7 28 -22 58 -15 33 -23 42 -18 24z"/>
<path d="M3061 544 c0 -11 3 -14 6 -6 3 7 2 16 -1 19 -3 4 -6 -2 -5 -13z"/>
<path d="M4292 520 c0 -14 2 -19 5 -12 2 6 2 18 0 25 -3 6 -5 1 -5 -13z"/>
<path d="M1070 489 c-36 -17 -91 -37 -124 -45 -95 -23 -232 -90 -318 -154 -4
-3 -14 -22 -22 -42 l-15 -36 34 0 c19 0 48 -7 66 -16 18 -9 42 -16 55 -16 12
0 35 -5 50 -10 14 -6 42 -12 61 -15 19 -2 40 -8 47 -13 6 -5 42 -9 80 -9 l70
1 24 -67 c14 -37 31 -67 38 -67 16 0 18 -6 -61 190 -81 201 -82 186 9 260 99
82 99 82 6 39z m-41 -309 c0 -9 -4 -8 -9 5 -5 11 -9 27 -9 35 0 9 4 8 9 -5 5
-11 9 -27 9 -35z"/>
<path d="M3071 504 c0 -11 3 -14 6 -6 3 7 2 16 -1 19 -3 4 -6 -2 -5 -13z"/>
<path d="M4282 460 c0 -14 2 -19 5 -12 2 6 2 18 0 25 -3 6 -5 1 -5 -13z"/>
<path d="M3087 425 c4 -40 13 -58 43 -90 48 -51 60 -89 69 -220 4 -58 11 -108
14 -112 13 -12 19 5 8 25 -6 12 -11 51 -11 89 0 98 -38 222 -84 278 -17 19
-17 19 -6 -5 10 -23 10 -24 -4 -6 -9 10 -13 23 -10 27 3 5 -2 21 -10 36 -14
27 -14 26 -9 -22z"/>
<path d="M5111 444 c0 -11 3 -14 6 -6 3 7 2 16 -1 19 -3 4 -6 -2 -5 -13z"/>
<path d="M5384 435 c4 -16 12 -34 17 -40 5 -5 4 6 -2 25 -15 45 -24 54 -15 15z"/>
<path d="M512 420 c0 -14 2 -19 5 -12 2 6 2 18 0 25 -3 6 -5 1 -5 -13z"/>
<path d="M4272 405 c0 -16 2 -22 5 -12 2 9 2 23 0 30 -3 6 -5 -1 -5 -18z"/>
<path d="M5122 400 c0 -14 2 -19 5 -12 2 6 2 18 0 25 -3 6 -5 1 -5 -13z"/>
<path d="M5366 367 c9 -27 18 -46 20 -44 5 5 -16 69 -27 82 -5 5 -2 -12 7 -38z"/>
<path d="M4261 355 c-1 -11 -4 -31 -6 -45 l-6 -25 11 25 c6 13 9 33 7 45 -4
19 -4 19 -6 0z"/>
<path d="M5131 354 c0 -11 3 -14 6 -6 3 7 2 16 -1 19 -3 4 -6 -2 -5 -13z"/>
<path d="M2532 300 c0 -14 2 -19 5 -12 2 6 2 18 0 25 -3 6 -5 1 -5 -13z"/>
<path d="M5141 304 c0 -11 3 -14 6 -6 3 7 2 16 -1 19 -3 4 -6 -2 -5 -13z"/>
<path d="M511 294 c0 -11 3 -14 6 -6 3 7 2 16 -1 19 -3 4 -6 -2 -5 -13z"/>
<path d="M5393 300 c3 -8 21 -60 40 -115 20 -55 42 -120 48 -145 6 -25 14 -39
16 -32 4 11 -53 252 -63 261 -2 2 -4 -4 -5 -15 0 -12 -7 -5 -20 21 -11 22 -18
33 -16 25z"/>
<path d="M4236 244 c-4 -20 -5 -38 -3 -40 3 -3 8 11 11 32 4 20 5 38 3 40 -3
3 -8 -11 -11 -32z"/>
<path d="M560 199 c0 -5 5 -7 10 -4 6 3 10 8 10 11 0 2 -4 4 -10 4 -5 0 -10
-5 -10 -11z"/>
<path d="M4221 174 c0 -11 3 -14 6 -6 3 7 2 16 -1 19 -3 4 -6 -2 -5 -13z"/>
<path d="M5143 125 c0 -27 2 -38 4 -22 2 15 2 37 0 50 -2 12 -4 0 -4 -28z"/>
<path d="M5236 115 c8 -37 14 -45 14 -19 0 10 -5 26 -10 34 -8 11 -9 7 -4 -15z"/>
<path d="M942 80 c0 -19 2 -27 5 -17 2 9 2 25 0 35 -3 9 -5 1 -5 -18z"/>
<path d="M4191 54 c0 -11 3 -14 6 -6 3 7 2 16 -1 19 -3 4 -6 -2 -5 -13z"/>
<path d="M5252 30 c0 -14 2 -19 5 -12 2 6 2 18 0 25 -3 6 -5 1 -5 -13z"/>
<path d="M2392 20 c0 -14 2 -19 5 -12 2 6 2 18 0 25 -3 6 -5 1 -5 -13z"/>
<path d="M951 14 c0 -11 3 -14 6 -6 3 7 2 16 -1 19 -3 4 -6 -2 -5 -13z"/>
<path d="M4181 14 c0 -11 3 -14 6 -6 3 7 2 16 -1 19 -3 4 -6 -2 -5 -13z"/>
</g>
</svg>
